<svg width="375" height="298" viewBox="0 0 375 298" fill="none" xmlns="http://www.w3.org/2000/svg">
<g filter="url(#filter0_d_2_158)">
<path d="M0 0H375V219.78C375 219.78 306.28 247 187.5 247C68.7197 247 0 219.78 0 219.78V0Z" fill="url(#paint0_linear_2_158)"/>
</g>
<path d="M299.66 60.1037C304.164 60.1037 308.207 62.1407 310.89 65.3499C313.554 62.1407 317.578 60.1037 322.062 60.1037C330.092 60.1037 336.148 66.1955 336.742 73.6132C336.761 73.9399 336.742 74.6317 336.799 75.4389C337.182 79.2438 340.21 82.357 344.273 82.357C348.527 82.357 351.958 78.9748 351.958 74.7086C351.958 70.4617 348.508 67.1179 344.273 67.1179C341.341 67.1179 338.869 68.7706 337.566 71.2111C336.991 68.6745 335.63 66.2147 333.925 64.3507C336.684 61.5258 340.651 59.8731 344.905 60.0076C352.973 60.2959 359.278 67.0987 358.991 75.189C358.703 83.2794 351.938 89.6018 343.851 89.3327C339.846 89.1982 336.282 87.5071 333.714 84.7399L333.139 84.1249C331.012 81.5114 329.843 78.7442 329.651 75.804C329.651 75.7463 329.651 75.1122 329.651 74.8239C329.651 70.577 326.24 67.1179 321.986 67.1179C317.731 67.1179 314.493 70.5577 314.493 74.8239C314.493 75.1506 314.493 87.6801 314.493 89.3712C312.097 89.448 310.143 88.468 308.61 86.3733C307.843 85.2395 307.345 83.6061 307.345 82.626V74.2474C306.981 70.2887 303.684 67.1563 299.641 67.1563C295.425 67.1563 292.225 70.5193 292.225 74.7278V89.4096C288.392 89.4096 285.172 86.5847 285 82.9527V74.5741C285.115 66.5606 291.631 60.1037 299.66 60.1037ZM336.857 88.91C336.857 89.2751 336.857 89.5633 336.857 89.8131C336.857 93.7718 334.442 97.2885 329.9 98.48C329.881 98.48 329.9 82.5107 329.9 81.3577C332.085 85.6623 333.388 86.7961 336.857 88.91Z" fill="white"/>
<path d="M346.016 73.4594H347.53C348.277 73.4594 348.891 74.0744 348.891 74.8239C348.891 75.5733 348.277 76.1883 347.53 76.1883H346.016V77.7064C346.016 78.4559 345.403 79.0708 344.656 79.0708C343.908 79.0708 343.295 78.4559 343.295 77.7064V76.1883H341.781C341.034 76.1883 340.42 75.5733 340.42 74.8239C340.42 74.0744 341.034 73.4594 341.781 73.4594H343.295V71.9413C343.295 71.1918 343.908 70.5769 344.656 70.5769C345.403 70.5769 346.016 71.1918 346.016 71.9413V73.4594Z" fill="white"/>
<g opacity="0.16">
<path d="M92.6244 127.287C92.6244 127.896 92.8049 128.492 93.1432 128.998C93.4815 129.505 93.9623 129.9 94.5249 130.133C95.0874 130.366 95.7065 130.427 96.3037 130.308C96.9009 130.189 97.4494 129.896 97.88 129.465C98.3106 129.034 98.6038 128.486 98.7226 127.888C98.8414 127.291 98.7804 126.672 98.5474 126.109C98.3144 125.546 97.9198 125.065 97.4135 124.727C96.9072 124.388 96.312 124.208 95.703 124.208C94.8865 124.208 94.1035 124.532 93.5261 125.11C92.9488 125.687 92.6244 126.471 92.6244 127.287V127.287Z" fill="white"/>
<path d="M76.0138 64.5675V70.0458H70.5373V74.4117H76.0138V79.89H80.386V74.4117H85.8626V70.0458H80.386V64.5675H76.0138ZM75.5524 64.0984H80.8474V69.5766H86.3315V74.8733H80.8474V80.3742H75.5524V74.8809H70.0759V69.5842H75.5524V64.0984Z" fill="white"/>
<path d="M36.5509 26.6964C36.5509 26.9957 36.6396 27.2883 36.8059 27.5372C36.9721 27.7861 37.2084 27.98 37.4848 28.0946C37.7613 28.2091 38.0654 28.2391 38.3589 28.1807C38.6524 28.1223 38.922 27.9782 39.1335 27.7665C39.3451 27.5549 39.4892 27.2852 39.5476 26.9917C39.606 26.6981 39.576 26.3938 39.4615 26.1173C39.347 25.8408 39.1531 25.6044 38.9043 25.4381C38.6555 25.2719 38.363 25.1831 38.0638 25.1831C37.6625 25.1831 37.2777 25.3425 36.994 25.6263C36.7103 25.9102 36.5509 26.2951 36.5509 26.6964Z" fill="white"/>
<path d="M28.5552 39.5144V52.3777H15.7412V62.5775H28.5552V75.3954H38.767V62.5775H51.6036V52.3777H38.7897V39.5144H28.5552ZM27.4583 38.4172H39.9016V51.2654H52.6929V63.6671H39.9016V76.485H27.4962V63.6671H14.6822V51.2654H27.481V38.4475L27.4583 38.4172Z" fill="white"/>
<path d="M182.745 91.0129C182.115 91.0129 181.603 90.5014 181.603 89.8704C181.603 89.2393 182.115 88.7278 182.745 88.7278C183.376 88.7278 183.888 89.2393 183.888 89.8704C183.888 90.5014 183.376 91.0129 182.745 91.0129Z" fill="white"/>
<path d="M106.497 47.5803H115.438V38.644H124.084V47.5803H133.025V56.2365H124.084V65.1803H115.438V56.2365H106.497V47.5803Z" fill="white"/>
<path d="M97.4511 75.4407H103.971V68.9258H110.28V75.4407H116.793V81.7512H110.28V88.2737H103.971V81.7512H97.4511V75.4407Z" fill="white"/>
<path d="M141.725 52.2793V66.0657H127.95V77.0525H141.725V90.8314H152.708V77.0525H166.49V66.0657H152.708V52.2793H141.725ZM140.552 51.1064H153.888V64.8853H167.663V78.2253H153.888V92.0118H140.552V78.2253H126.77V64.8853H140.552V51.1064V51.1064Z" fill="white"/>
<path d="M70.4457 5.68736V25.4287H50.7029V41.1674H70.4457V60.9088H86.1719V41.1674H105.915V25.4287H86.1719V5.68736H70.4457ZM68.7589 4H87.8587V23.7414H107.602V42.8547H87.8587V62.5961H68.7589V42.8547H48.9782V23.7414H68.7211V4H68.7589Z" fill="white"/>
<path d="M49.0998 93.5931H57.4508V85.2471H65.5218V93.5931H73.8652V101.674H65.5218V110.02H57.4508V101.674H49.0998V93.5931Z" fill="white"/>
<path d="M0.00033404 81.5924H14.4633V67.125H28.4496V81.5924H42.9126V95.5907H28.4496V110.051H14.4633V95.5907H0.00033404V81.5924Z" fill="white"/>
</g>
<defs>
<filter id="filter0_d_2_158" x="0" y="0" width="375" height="251" filterUnits="userSpaceOnUse" color-interpolation-filters="sRGB">
<feFlood flood-opacity="0" result="BackgroundImageFix"/>
<feColorMatrix in="SourceAlpha" type="matrix" values="0 0 0 0 0 0 0 0 0 0 0 0 0 0 0 0 0 0 127 0" result="hardAlpha"/>
<feOffset dy="4"/>
<feColorMatrix type="matrix" values="0 0 0 0 0.396078 0 0 0 0 0.917647 0 0 0 0 0.984314 0 0 0 1 0"/>
<feBlend mode="normal" in2="BackgroundImageFix" result="effect1_dropShadow_2_158"/>
<feBlend mode="normal" in="SourceGraphic" in2="effect1_dropShadow_2_158" result="shape"/>
</filter>
<linearGradient id="paint0_linear_2_158" x1="0" y1="0" x2="226.93" y2="344.529" gradientUnits="userSpaceOnUse">
<stop stop-color="#3C8CE7"/>
<stop offset="1" stop-color="#00EAFF"/>
</linearGradient>
</defs>
</svg>
