<svg width="184" height="127" viewBox="0 0 184 127" fill="none" xmlns="http://www.w3.org/2000/svg">
<g opacity="0.16">
<path d="M92.6244 123.287C92.6244 123.896 92.8049 124.492 93.1432 124.998C93.4815 125.505 93.9623 125.9 94.5249 126.133C95.0874 126.366 95.7065 126.427 96.3037 126.308C96.9009 126.189 97.4494 125.896 97.88 125.465C98.3106 125.034 98.6038 124.486 98.7226 123.888C98.8414 123.291 98.7804 122.672 98.5474 122.109C98.3144 121.546 97.9198 121.065 97.4135 120.727C96.9072 120.388 96.312 120.208 95.703 120.208C94.8865 120.208 94.1035 120.532 93.5261 121.11C92.9488 121.687 92.6244 122.471 92.6244 123.287Z" fill="white"/>
<path d="M76.0138 60.5675V66.0458H70.5373V70.4117H76.0138V75.89H80.386V70.4117H85.8626V66.0458H80.386V60.5675H76.0138ZM75.5524 60.0984H80.8474V65.5766H86.3315V70.8733H80.8474V76.3742H75.5524V70.8809H70.0759V65.5842H75.5524V60.0984Z" fill="white"/>
<path d="M36.5509 22.6964C36.5509 22.9957 36.6396 23.2883 36.8059 23.5372C36.9721 23.7861 37.2084 23.98 37.4848 24.0946C37.7613 24.2091 38.0654 24.2391 38.3589 24.1807C38.6524 24.1223 38.922 23.9782 39.1335 23.7665C39.3451 23.5549 39.4892 23.2852 39.5476 22.9917C39.606 22.6981 39.576 22.3938 39.4615 22.1173C39.347 21.8408 39.1531 21.6044 38.9043 21.4381C38.6555 21.2719 38.363 21.1831 38.0638 21.1831C37.6625 21.1831 37.2777 21.3425 36.994 21.6263C36.7103 21.9102 36.5509 22.2951 36.5509 22.6964Z" fill="white"/>
<path d="M28.5552 35.5144V48.3777H15.7412V58.5775H28.5552V71.3954H38.767V58.5775H51.6036V48.3777H38.7897V35.5144H28.5552ZM27.4583 34.4172H39.9016V47.2654H52.6929V59.6671H39.9016V72.485H27.4962V59.6671H14.6822V47.2654H27.481V34.4475L27.4583 34.4172Z" fill="white"/>
<path d="M182.745 87.0129C182.115 87.0129 181.603 86.5014 181.603 85.8704C181.603 85.2393 182.115 84.7278 182.745 84.7278C183.376 84.7278 183.888 85.2393 183.888 85.8704C183.888 86.5014 183.376 87.0129 182.745 87.0129Z" fill="white"/>
<path d="M106.497 43.5803H115.438V34.644H124.084V43.5803H133.025V52.2365H124.084V61.1803H115.438V52.2365H106.497V43.5803Z" fill="white"/>
<path d="M97.451 71.4407H103.971V64.9258H110.28V71.4407H116.793V77.7512H110.28V84.2737H103.971V77.7512H97.451V71.4407Z" fill="white"/>
<path d="M141.725 48.2793V62.0657H127.95V73.0525H141.725V86.8314H152.708V73.0525H166.49V62.0657H152.708V48.2793H141.725ZM140.552 47.1064H153.888V60.8853H167.663V74.2253H153.888V88.0118H140.552V74.2253H126.77V60.8853H140.552V47.1064Z" fill="white"/>
<path d="M70.4457 1.68736V21.4287H50.7029V37.1674H70.4457V56.9088H86.1719V37.1674H105.915V21.4287H86.1719V1.68736H70.4457ZM68.7589 0H87.8587V19.7414H107.602V38.8547H87.8587V58.5961H68.7589V38.8547H48.9782V19.7414H68.7211V0H68.7589Z" fill="white"/>
<path d="M49.0998 89.5931H57.4508V81.2471H65.5218V89.5931H73.8652V97.6742H65.5218V106.02H57.4508V97.6742H49.0998V89.5931Z" fill="white"/>
<path d="M0.000335693 77.5924H14.4633V63.125H28.4496V77.5924H42.9126V91.5907H28.4496V106.051H14.4633V91.5907H0.000335693V77.5924Z" fill="white"/>
</g>
</svg>
