<svg width="74" height="39" viewBox="0 0 74 39" fill="none" xmlns="http://www.w3.org/2000/svg">
<path d="M14.6601 0.103712C19.1636 0.103712 23.2071 2.14071 25.89 5.34994C28.5537 2.14071 32.5781 0.103712 37.0623 0.103712C45.0919 0.103712 51.1476 6.19549 51.7416 13.6132C51.7608 13.9399 51.7416 14.6317 51.7991 15.4389C52.1824 19.2438 55.2102 22.357 59.2729 22.357C63.5272 22.357 66.9575 18.9748 66.9575 14.7086C66.9575 10.4617 63.5081 7.11791 59.2729 7.11791C56.3409 7.11791 53.8688 8.77057 52.5657 11.2111C51.9908 8.67448 50.6302 6.21471 48.9246 4.35066C51.6842 1.52577 55.651 -0.126892 59.9053 0.0076269C67.9732 0.295881 74.278 7.09869 73.9905 15.189C73.7031 23.2794 66.9384 29.6018 58.8513 29.3327C54.8461 29.1982 51.2817 27.5071 48.7138 24.7399L48.1389 24.1249C46.0117 21.5114 44.8428 18.7442 44.6511 15.804C44.6511 15.7463 44.6511 15.1122 44.6511 14.8239C44.6511 10.577 41.24 7.11791 36.9857 7.11791C32.7314 7.11791 29.4927 10.5577 29.4927 14.8239C29.4927 15.1506 29.4927 27.6801 29.4927 29.3712C27.0973 29.448 25.1426 28.468 23.6095 26.3733C22.843 25.2395 22.3447 23.6061 22.3447 22.626V14.2474C21.9806 10.2887 18.6845 7.15634 14.641 7.15634C10.425 7.15634 7.22467 10.5193 7.22467 14.7278V29.4096C3.39195 29.4096 0.172472 26.5847 0 22.9527L0 14.5741C0.114981 6.56061 6.6306 0.103712 14.6601 0.103712ZM51.8566 28.91C51.8566 29.2751 51.8566 29.5633 51.8566 29.8131C51.8566 33.7718 49.442 37.2885 44.9002 38.48C44.8811 38.48 44.9002 22.5107 44.9002 21.3577C47.0849 25.6623 48.388 26.7961 51.8566 28.91Z" fill="white"/>
<path d="M61.0162 13.4594H62.5301C63.2775 13.4594 63.8907 14.0744 63.8907 14.8239C63.8907 15.5733 63.2775 16.1883 62.5301 16.1883H61.0162V17.7064C61.0162 18.4559 60.4029 19.0708 59.6556 19.0708C58.9082 19.0708 58.2949 18.4559 58.2949 17.7064V16.1883H56.781C56.0336 16.1883 55.4204 15.5733 55.4204 14.8239C55.4204 14.0744 56.0336 13.4594 56.781 13.4594H58.2949V11.9413C58.2949 11.1918 58.9082 10.5769 59.6556 10.5769C60.4029 10.5769 61.0162 11.1918 61.0162 11.9413V13.4594Z" fill="white"/>
</svg>
