<svg viewBox="0 0 35 35" xmlns="http://www.w3.org/2000/svg" xmlns:xlink="http://www.w3.org/2000/xlink">

    <path d="M19,16 L33.5,16 C34.3284271,16 35,16.6715729 35,17.5 C35,18.3284271 34.3284271,19 33.5,19 L19,19 L19,33.5 C19,34.3284271 18.3284271,35 17.5,35 C16.6715729,35 16,34.3284271 16,33.5 L16,19 L1.5,19 C0.671572875,19 1.42519767e-14,18.3284271 1.43027032e-14,17.5 C1.43534298e-14,16.6715729 0.671572875,16 1.5,16 L16,16 L16,1.5 C16,0.671572875 16.6715729,7.10542736e-15 17.5,7.10542736e-15 C18.3284271,7.10542736e-15 19,0.671572875 19,1.5 L19,16 Z" id="Combined-Shape"></path>

</svg>